<?xml version="1.0" encoding="UTF-8"?>
<svg id="Camada_2" data-name="Camada 2" xmlns="http://www.w3.org/2000/svg" viewBox="0 0 30.84 30.84">
  <defs>
    <style>
      .cls-1 {
        fill: #a6e8ed;
        stroke-width: 0px;
      }
    </style>
  </defs>
  <g id="Camada_1-2" data-name="Camada 1">
    <g>
      <path class="cls-1" d="M23.65,5.34c-2.47.08-2.47,3.62,0,3.7,2.47-.08,2.47-3.63,0-3.7Z"/>
      <path class="cls-1" d="M15.42,7.48c-4.37,0-7.92,3.55-7.92,7.94.42,10.53,15.42,10.53,15.83,0,0-4.38-3.54-7.94-7.92-7.94ZM15.42,20.57c-2.84,0-5.14-2.31-5.14-5.15.27-6.84,10.01-6.83,10.28,0,0,2.85-2.3,5.15-5.14,5.15Z"/>
      <path class="cls-1" d="M30.74,9.06C30.63,3.65,27.19.21,21.78.09,20.48-.03,10.36-.03,9.06.09,3.65.21.21,3.65.09,9.06-.03,10.36-.03,20.48.09,21.78c.1,5.39,3.57,8.87,8.97,8.97,1.3.13,11.41.13,12.71,0,1.64-.08,2.76-.34,3.74-.72,3.44-1.37,5.12-4.43,5.23-8.25.13-1.3.13-11.41,0-12.71ZM21.65,27.97c-1.28.12-11.18.12-12.46,0-1.5-.07-2.32-.32-2.86-.53-4.69-2.18-3.24-6.58-3.46-12.61,0-1.4,0-4.23,0-5.63.19-4.18,2.16-6.12,6.32-6.32,1.28-.12,11.18-.12,12.46,0,4.18.19,6.12,2.16,6.32,6.32.08,1,.14,6.46,0,9.22.15,5.19-.08,9.26-6.32,9.56Z"/>
    </g>
  </g>
</svg>