<?xml version="1.0" encoding="UTF-8"?>
<svg id="Camada_2" data-name="Camada 2" xmlns="http://www.w3.org/2000/svg" viewBox="0 0 191.88 96.57">
  <defs>
    <style>
      .cls-1 {
        fill: #e595d0;
      }

      .cls-1, .cls-2 {
        stroke-width: 0px;
      }

      .cls-2 {
        fill: #a6e8ed;
      }
    </style>
  </defs>
  <g id="Camada_1-2" data-name="Camada 1">
    <g>
      <path class="cls-2" d="M31.48,24.78h-10.03c.2.52.52,1.04.96,1.4.84.8,2.04,1.28,3.4,1.28,1.16,0,2.4-.36,3.24-.96,1.2-.88,2.84-.52,3.72.72.8,1.24.48,3.01-.72,3.85-1.72,1.24-4,1.92-6.24,1.92-2.76,0-5.24-1-7.12-2.81-.88-.88-1.6-1.93-2.08-3.13-.56-1.16-.84-2.49-.84-3.85v-.32c0-1.36.28-2.65.8-3.89.52-1.2,1.2-2.25,2.04-3.17.92-.92,1.92-1.65,3.08-2.17,1.2-.52,2.48-.72,3.8-.72,2.32,0,4.6.72,6.28,2.17,1.84,1.52,3.04,3.69,3.32,6.14.24,1.72-1,3.33-2.68,3.53-.12,0-.24.04-.4.04-.12,0-.28-.04-.36-.04h-.16ZM28.32,20.36h.92c-.36-1.44-1.92-2.49-3.76-2.49s-3.44,1.04-3.84,2.49h6.72-.04ZM48.36,29.83c0-1.73-1.4-3.13-3.12-3.13-1.12,0-2.04-.92-2.04-2.05v-6.14h2.4c1.52,0,2.76-1.24,2.76-2.77s-1.24-2.81-2.76-2.81h-2.4v-3.25c0-1.72-1.4-3.13-3.12-3.13s-3.16,1.4-3.16,3.13v14.96c0,2.25.88,4.33,2.44,5.94,1.56,1.52,3.64,2.41,5.88,2.41,1.72,0,3.12-1.4,3.12-3.17M54.31,33c-1.76,0-3.16-1.44-3.16-3.17v-13.72c0-1.72,1.4-3.17,3.16-3.17s3.12,1.44,3.12,3.17v13.72c0,1.72-1.4,3.17-3.12,3.17M57.19,8.85c0,1.6-1.28,2.89-2.88,2.89s-2.92-1.28-2.92-2.89,1.32-2.85,2.92-2.85,2.88,1.28,2.88,2.85M80.22,28.27v7.9c0,1.73-1.44,3.17-3.16,3.17s-3.16-1.44-3.16-3.17v-3.89c-1.16.48-2.4.72-3.64.72-5.56,0-10.03-4.49-10.03-10.03s4.48-10.03,10.03-10.03c1.76,0,3.4.48,4.84,1.28.52-.76,1.4-1.28,2.36-1.28,1.52,0,2.76,1.24,2.76,2.77v12.55ZM72.87,25.62c.72-.68,1.12-1.65,1.12-2.65s-.4-1.97-1.12-2.65c-.72-.72-1.64-1.08-2.6-1.08-1.04,0-1.96.36-2.68,1.08-.68.68-1.08,1.64-1.08,2.65s.4,1.97,1.08,2.65c.72.72,1.64,1.08,2.68,1.08.96,0,1.88-.36,2.6-1.08M90.98,33c2.32,0,4.52-.92,6.16-2.57,1.68-1.68,2.6-3.89,2.6-6.22v-8.1c0-1.77-1.44-3.17-3.16-3.17s-3.16,1.4-3.16,3.17v8.1c0,1.36-1.08,2.49-2.44,2.49s-2.48-1.12-2.48-2.49v-8.1c0-1.77-1.4-3.17-3.16-3.17s-3.12,1.4-3.12,3.17v8.1c0,2.33.92,4.53,2.56,6.22,1.64,1.64,3.84,2.57,6.2,2.57M117.25,24.78h-10.03c.2.52.52,1.04.96,1.4.84.8,2.04,1.28,3.4,1.28,1.16,0,2.4-.36,3.24-.96,1.2-.88,2.84-.52,3.72.72.8,1.24.48,3.01-.72,3.85-1.72,1.24-4,1.92-6.24,1.92-2.76,0-5.24-1-7.12-2.81-.88-.88-1.6-1.93-2.08-3.13-.56-1.16-.84-2.49-.84-3.85v-.32c0-1.36.28-2.65.8-3.89.52-1.2,1.2-2.25,2.04-3.17.92-.92,1.92-1.65,3.08-2.17,1.2-.52,2.48-.72,3.8-.72,2.32,0,4.6.72,6.28,2.17,1.84,1.52,3.04,3.69,3.32,6.14.24,1.72-1,3.33-2.68,3.53-.12,0-.24.04-.4.04-.12,0-.28-.04-.36-.04h-.16ZM114.09,20.36h.92c-.36-1.44-1.92-2.49-3.76-2.49s-3.44,1.04-3.84,2.49h6.72-.04ZM134.12,29.83c0-1.73-1.4-3.13-3.12-3.13-1.12,0-2.04-.92-2.04-2.05v-6.14h2.4c1.52,0,2.76-1.24,2.76-2.77s-1.24-2.81-2.76-2.81h-2.4v-3.25c0-1.72-1.4-3.13-3.12-3.13s-3.16,1.4-3.16,3.13v14.96c0,2.25.88,4.33,2.44,5.94,1.56,1.52,3.64,2.41,5.88,2.41,1.72,0,3.12-1.4,3.12-3.17M155.91,15.71v14.48c0,1.52-1.24,2.77-2.76,2.77-1,0-1.84-.52-2.36-1.28-1.44.8-3.12,1.28-4.88,1.28-5.52,0-10-4.49-10-10.03s4.48-10.03,10-10.03c1.8,0,3.48.48,4.92,1.28.52-.72,1.36-1.24,2.32-1.24,1.52,0,2.76,1.24,2.76,2.77M149.63,22.93c0-1-.4-1.93-1.08-2.65-.72-.72-1.64-1.08-2.64-1.08s-1.92.36-2.64,1.08c-.72.72-1.08,1.64-1.08,2.65s.36,1.93,1.08,2.65c.72.68,1.64,1.08,2.64,1.08s1.92-.4,2.64-1.08c.68-.72,1.08-1.64,1.08-2.65M163.99,33c1.72-.16,3.28-.88,4.44-2.09,1.24-1.28,1.88-2.97,1.84-4.73-.08-1.57-.68-3.05-1.72-4.17-.24-.24-.52-.48-.76-.68-.6-.48-1.28-.84-1.96-1.08-.44-.12-.88-.16-1.28-.32-.44-.12-1-.4-.88-1,.16-.72,1.04-.64,1.52-.4,1.32.76,3,.32,3.76-1,.8-1.32.32-3.01-1-3.77-1.08-.64-2.64-.96-4-.88-1.6.12-3.12.84-4.24,2.05-1.16,1.24-1.76,2.85-1.68,4.49.04,1.52.76,2.97,2,4.13.56.52,1.16.92,1.84,1.28.44.2.88.36,1.36.48.6.16,1.36.24,1.48.96.04.28-.04.56-.24.76-.4.48-1.2.48-1.76.32-.32-.08-.6-.24-.88-.4-1.2-.64-2.76-.08-3.48,1-.84,1.28-.48,2.97.8,3.81,1.2.76,2.96,1.28,4.48,1.24h.36ZM49.41,43.15v14.48c0,1.52-1.24,2.77-2.76,2.77-1,0-1.84-.52-2.36-1.28-1.44.8-3.12,1.28-4.88,1.28-5.52,0-9.99-4.49-9.99-10.03s4.48-10.03,9.99-10.03c1.8,0,3.48.48,4.92,1.28.52-.72,1.36-1.24,2.32-1.24,1.52,0,2.76,1.24,2.76,2.77M43.14,50.37c0-1-.4-1.93-1.08-2.65-.72-.72-1.64-1.08-2.64-1.08s-1.92.36-2.64,1.08c-.72.72-1.08,1.64-1.08,2.65s.36,1.92,1.08,2.65c.72.68,1.64,1.08,2.64,1.08s1.92-.4,2.64-1.08c.68-.72,1.08-1.65,1.08-2.65M71.25,50.49v7.18c0,1.52-1.24,2.77-2.76,2.77-.96,0-1.84-.52-2.32-1.28-1.48.8-3.16,1.28-4.92,1.28-5.56,0-10.04-4.49-10.04-10.03s4.48-10.07,10.04-10.07c1.28,0,2.56.24,3.68.68v-3.85c0-1.72,1.44-3.13,3.2-3.13s3.12,1.4,3.12,3.13v13.32ZM64.97,50.41c0-1-.36-1.97-1.08-2.65-.72-.72-1.64-1.12-2.64-1.12s-1.96.4-2.68,1.12c-.68.68-1.08,1.64-1.08,2.65s.4,1.93,1.08,2.61c.72.72,1.68,1.12,2.68,1.12s1.92-.4,2.64-1.12c.72-.68,1.08-1.61,1.08-2.61M88.76,52.22h-10.03c.2.52.52,1.04.96,1.4.84.8,2.04,1.28,3.4,1.28,1.16,0,2.4-.36,3.24-.96,1.2-.88,2.84-.52,3.72.72.8,1.24.48,3.01-.72,3.85-1.72,1.24-4,1.93-6.24,1.93-2.76,0-5.24-1-7.12-2.81-.88-.88-1.6-1.93-2.08-3.13-.56-1.16-.84-2.49-.84-3.85v-.32c0-1.36.28-2.65.8-3.89.52-1.2,1.2-2.25,2.04-3.17.92-.92,1.92-1.64,3.08-2.17,1.2-.52,2.48-.72,3.8-.72,2.32,0,4.6.72,6.28,2.17,1.84,1.52,3.04,3.69,3.32,6.14.24,1.72-1,3.33-2.68,3.53-.12,0-.24.04-.4.04-.12,0-.28-.04-.36-.04h-.16ZM85.6,47.81h.92c-.36-1.44-1.92-2.49-3.76-2.49s-3.44,1.04-3.84,2.49h6.72-.04ZM100.28,60.44c1.72-.16,3.28-.88,4.44-2.09,1.24-1.28,1.88-2.97,1.84-4.73-.08-1.56-.68-3.05-1.72-4.17-.24-.24-.52-.48-.76-.68-.6-.48-1.28-.84-1.96-1.08-.44-.12-.88-.16-1.28-.32-.44-.12-1-.4-.88-1,.16-.72,1.04-.64,1.52-.4,1.32.76,3,.32,3.76-1,.8-1.32.32-3.01-1-3.77-1.08-.64-2.64-.96-4-.88-1.6.12-3.12.84-4.24,2.05-1.16,1.24-1.76,2.85-1.68,4.49.04,1.52.76,2.97,2,4.13.56.52,1.16.92,1.84,1.28.44.2.88.36,1.36.48.6.16,1.36.24,1.48.96.04.28-.04.56-.24.76-.4.48-1.2.48-1.76.32-.32-.08-.6-.24-.88-.4-1.2-.64-2.76-.08-3.48,1-.84,1.28-.48,2.97.8,3.81,1.2.76,2.96,1.28,4.48,1.24h.36ZM112.11,60.44c-1.76,0-3.16-1.44-3.16-3.17v-13.72c0-1.72,1.4-3.17,3.16-3.17s3.12,1.44,3.12,3.17v13.72c0,1.73-1.4,3.17-3.12,3.17M114.99,36.29c0,1.6-1.28,2.89-2.88,2.89s-2.92-1.28-2.92-2.89,1.32-2.85,2.92-2.85,2.88,1.28,2.88,2.85M156.33,50.41c0,5.54-4.48,10.03-10,10.03s-10-4.49-10-10.03,4.48-10.03,10-10.03,10,4.49,10,10.03M143.7,47.77c-.72.68-1.08,1.64-1.08,2.65s.36,1.93,1.08,2.65c.72.68,1.64,1.08,2.64,1.08s1.92-.4,2.64-1.08c.68-.72,1.08-1.64,1.08-2.65s-.4-1.97-1.08-2.65c-.72-.72-1.64-1.12-2.64-1.12s-1.92.4-2.64,1.12M164.01,60.44c1.72-.16,3.28-.88,4.44-2.09,1.24-1.28,1.88-2.97,1.84-4.73-.08-1.56-.68-3.05-1.72-4.17-.24-.24-.52-.48-.76-.68-.6-.48-1.28-.84-1.96-1.08-.44-.12-.88-.16-1.28-.32-.44-.12-1-.4-.88-1,.16-.72,1.04-.64,1.52-.4,1.32.76,3,.32,3.76-1,.8-1.32.32-3.01-1-3.77-1.08-.64-2.64-.96-4-.88-1.6.12-3.12.84-4.24,2.05-1.16,1.24-1.76,2.85-1.68,4.49.04,1.52.76,2.97,2,4.13.56.52,1.16.92,1.84,1.28.44.2.88.36,1.36.48.6.16,1.36.24,1.48.96.04.28-.04.56-.24.76-.4.48-1.2.48-1.76.32-.32-.08-.6-.24-.88-.4-1.2-.64-2.76-.08-3.48,1-.84,1.28-.48,2.97.8,3.81,1.2.76,2.96,1.28,4.48,1.24h.36ZM28.12,55.8c1,1.28.86,3.1-.36,4.19-.54.45-1.23.68-1.91.68-.86,0-1.73-.36-2.32-1.05l-.95-1.18c-.23.14-.41.32-.63.45-1.72,1.19-3.72,1.78-5.72,1.78-1.41,0-2.77-.27-4-.82-1.23-.5-2.31-1.28-3.27-2.14-.95-.96-1.68-2.05-2.18-3.33-.5-1.28-.77-2.55-.77-3.96,0-1.91.5-3.78,1.5-5.42.5-.82,1.14-1.59,1.86-2.23-1.23-1.5-1.86-3.37-1.86-5.33,0-2.32.91-4.51,2.54-6.2,1.68-1.59,3.81-2.51,6.17-2.51s4.45.91,6.13,2.51c1.59,1.69,2.5,3.87,2.5,6.2s-.91,4.46-2.5,6.15c-.86.82-1.86,1.5-2.95,1.91l2.5,2.91,1.27-2.6c.68-1.5,2.45-2.1,3.95-1.41,1.5.73,2.09,2.51,1.41,3.96l-2.45,5.01,2.04,2.41ZM18.72,53.89l-5.54-6.56c-.77.82-1.27,1.91-1.27,3.1,0,2.37,1.91,4.28,4.31,4.28.91,0,1.82-.27,2.5-.82M13.45,37.44c0,1.5,1.23,2.73,2.77,2.73s2.68-1.23,2.68-2.73-1.18-2.73-2.68-2.73-2.77,1.23-2.77,2.73M133.1,40.64c-1.63-.66-3.48.12-4.14,1.75l-2.6,6.41-2.6-6.41c-.66-1.63-2.52-2.41-4.14-1.75-1.63.66-2.41,2.52-1.75,4.14l5.55,13.67s0,0,0,.01c.05.13.12.26.19.38.02.03.03.06.05.09.07.12.15.23.24.34,0,0,.01.01.02.02.09.1.18.2.28.29.02.02.05.04.07.07.1.09.21.18.33.26,0,0,0,0,0,0,.11.07.23.14.35.2.03.02.07.03.1.05.03.02.07.03.1.05.03.01.06.02.1.03.13.05.26.09.4.12.05.01.11.03.16.04.18.03.35.05.53.05,0,0,0,0,0,0,0,0,0,0,0,0s0,0,0,0c0,0,0,0,0,0,.18,0,.36-.02.53-.05.05,0,.11-.02.16-.04.14-.03.27-.07.4-.12.03-.01.06-.02.1-.03.03-.01.07-.03.1-.05.03-.02.07-.03.1-.05.12-.06.24-.12.35-.2,0,0,0,0,0,0,.12-.08.23-.16.33-.26.02-.02.05-.04.07-.07.1-.09.19-.19.28-.29,0,0,.01-.01.02-.02.09-.11.17-.22.24-.34.02-.03.04-.06.05-.09.07-.12.14-.25.19-.38,0,0,0,0,0-.01l5.55-13.67c.66-1.63-.12-3.48-1.75-4.14ZM25.85,66.68c-1.42,0-2.83-.34-4.1-.97-3.85,1.42-8.28,1.27-11.91-.34-1.67-.69-3.34-1.77-4.92-3.2l-.31-.31c-1.47-1.46-2.64-3.26-3.43-5.28-.8-2.02-1.19-4.03-1.19-6.15,0-2.97.78-5.84,2.25-8.33-.5-1.51-.76-3.07-.76-4.65,0-3.87,1.5-7.55,4.24-10.38l.2-.19c1.12-1.08,2.42-1.97,3.86-2.66-.02-.33-.03-.67-.03-1v-.32c0-2.12.42-4.21,1.26-6.21.78-1.81,1.84-3.46,3.14-4.89l.16-.17c1.5-1.51,3.1-2.62,4.89-3.43,1.96-.84,4.01-1.25,6.27-1.25,1.93,0,3.85.33,5.61.97.84-4.21,4.56-7.35,8.98-7.35,2.73,0,5.24,1.17,6.95,3.19,1.66-2.31,4.38-3.75,7.29-3.75,4.81,0,8.74,3.82,8.88,8.58,3.42-1.68,7.38-2.12,11.19-1.09,2.25-.85,4.84-.71,6.98.36,1.23-.6,2.6-.92,3.98-.92,2.05,0,4.02.68,5.62,1.93,1.6-1.25,3.57-1.93,5.61-1.93,2.32,0,4.54.89,6.23,2.45.7-.46,1.42-.86,2.19-1.2,1.95-.84,3.99-1.25,6.26-1.25,1.93,0,3.85.33,5.61.97.84-4.21,4.57-7.35,8.98-7.35s7.94,2.94,8.89,7.06c.99.41,1.89,1.01,2.67,1.75,3.74-2.36,8.48-3.08,12.76-1.89.95-.35,1.98-.54,3-.54,1.83,0,3.56.55,5.03,1.6,1.62-.95,3.45-1.52,5.32-1.66h.18c.11-.02.39-.02.68-.02,2.36,0,4.78.63,6.64,1.73,1.99,1.15,3.47,3.12,4.06,5.38.52,2.02.31,4.13-.6,5.98,1.07,1.78,1.69,3.81,1.8,5.93v.21c.08,3.37-1.17,6.57-3.52,9.01-.41.42-.84.82-1.31,1.18,1.79,1.17,3.11,3.02,3.65,5.13.53,2.02.31,4.13-.6,5.98,1.07,1.78,1.69,3.81,1.8,5.93v.22c.08,3.37-1.17,6.57-3.52,9-2.13,2.22-5.05,3.61-8.21,3.89l-.16.02c-.13,0-.84.02-.92.02-2.55,0-5.37-.82-7.53-2.19-.26-.17-.5-.34-.73-.52-2.62,1.75-5.74,2.7-8.88,2.7-4.44,0-8.72-1.9-11.73-5.14-.09.19-.19.37-.3.56-.08.13-.13.21-.17.28-.22.36-.44.67-.68.96l-.26.31c-.13.15-.33.35-.56.56l-.26.24c-.2.18-.45.37-.72.56l-.48.31c-.2.13-.47.27-.76.42l-1.27.5c-.15.05-.39.12-.62.18-.29.07-.47.11-.64.13-.27.05-.62.09-.95.11l-1.02.02h-.11c-.36-.04-.7-.08-1.03-.14-.12-.02-.28-.05-.43-.09-.35-.08-.65-.17-.93-.26-.2-.07-.36-.12-.52-.19-.09-.03-.2-.08-.38-.17h0s-.16-.07-.33-.16c-.12-.04-.41-.21-.7-.39l-.49-.33c-.13-.08-.41-.3-.7-.56l-.14-.13c-.3-.27-.53-.5-.74-.75l-.13-.15s-.05-.07-.08-.1c-1.73,2.14-4.33,3.42-7.09,3.42-2.03,0-3.99-.67-5.59-1.91-1.71,1.05-3.66,1.7-5.69,1.89l-.16.02c-.13,0-.85.02-.92.02-2.56,0-5.38-.82-7.54-2.19-.12-.08-.23-.15-.34-.23-2.55,1.56-5.64,2.41-8.79,2.41s-6.04-.84-8.57-2.39c-1.62,1.53-3.77,2.39-6.02,2.39-1.04,0-2.09-.19-3.06-.56-4.32,1.18-8.99.45-12.72-1.91-1.62,1.55-3.78,2.43-6.04,2.43-1.06,0-2.1-.19-3.08-.56-3.92,1.07-8.24.56-11.8-1.39,0,0-.02.02-.03.02l-.09.08c-1.65,1.37-3.71,2.12-5.82,2.12ZM21.88,63.66l.39.22c2.54,1.44,5.92,1.16,8.18-.72l.07-.06c.15-.14.3-.28.44-.43l.52-.55.64.39c3.33,2.03,7.51,2.58,11.25,1.47l.32-.09.31.13c.85.36,1.74.54,2.67.54,2,0,3.9-.87,5.21-2.39l.55-.64.69.49c3.47,2.45,7.98,3.22,12.1,2.01l.32-.09.3.13c.83.35,1.75.54,2.66.54,1.98,0,3.87-.85,5.19-2.34l.54-.61.68.46c2.36,1.61,5.27,2.5,8.19,2.5s5.98-.87,8.32-2.46l.58-.39.54.45c.22.18.45.35.7.51,1.87,1.19,4.31,1.9,6.53,1.9.07,0,.66,0,.77-.01l.13-.02c1.96-.18,3.83-.85,5.41-1.95l.61-.42.55.49c1.35,1.22,3.09,1.9,4.9,1.9,2.57,0,4.98-1.41,6.29-3.67l.84-1.45.78,1.48c.04.08.06.12.09.16.2.32.38.57.59.83l.12.13c.17.2.35.38.57.58l.14.13c.21.19.4.35.55.44l.35.24c.24.14.44.27.59.33.15.08.21.11.25.13.1.05.16.07.2.09l.12.05c.13.06.25.1.41.15.24.08.49.15.77.22.11.03.23.05.33.07.29.05.57.08.89.11h.72s.08,0,.08,0c.27-.02.54-.05.78-.09.16-.02.3-.05.5-.1.18-.05.37-.1.56-.16l.47-.16.45-.2c.26-.13.47-.25.65-.36l.31-.2c.24-.18.44-.32.6-.47l.25-.22c.15-.14.31-.3.46-.47l.16-.19c.22-.26.39-.51.58-.82.05-.07.08-.13.13-.21.14-.25.27-.5.4-.77l1-2.45.99,1.29c2.67,3.5,6.88,5.6,11.26,5.6,2.99,0,5.97-.98,8.39-2.77l.63-.46.56.54c.31.3.65.56,1.03.81,1.87,1.18,4.31,1.9,6.53,1.9.07,0,.66,0,.77-.01l.13-.02c2.73-.25,5.23-1.43,7.05-3.33,2.01-2.08,3.07-4.81,3.01-7.69v-.19c-.11-1.93-.73-3.82-1.8-5.43l-.32-.48.29-.5c.89-1.55,1.13-3.36.68-5.09-.46-1.79-1.63-3.33-3.2-4.24-.26-.16-.53-.3-.81-.43l-1.59-.74,1.51-.9c.83-.5,1.57-1.09,2.22-1.76,2.01-2.08,3.07-4.81,3-7.69v-.19c-.11-1.93-.73-3.82-1.8-5.43l-.32-.48.29-.5c.89-1.55,1.13-3.36.68-5.09-.46-1.79-1.63-3.34-3.2-4.24-1.59-.94-3.67-1.48-5.71-1.48-.21,0-.42,0-.56.01h-.21c-1.73.14-3.46.73-4.95,1.71l-.57.38-.53-.44c-1.25-1.03-2.76-1.58-4.38-1.58-.88,0-1.78.18-2.6.52l-.31.13-.32-.09c-4.09-1.22-8.68-.46-12.14,1.99l-.69.48-.55-.63c-.79-.92-1.81-1.61-2.95-2l-.52-.18-.09-.54c-.6-3.5-3.61-6.04-7.17-6.04-3.87,0-7.07,3.01-7.29,6.86l-.08,1.36-1.24-.57c-1.82-.83-3.89-1.28-5.98-1.28s-3.81.36-5.51,1.09c-.88.4-1.7.88-2.5,1.46l-.68.5-.56-.63c-1.38-1.54-3.36-2.43-5.43-2.43-1.85,0-3.62.7-4.98,1.97l-.63.59-.63-.59c-1.35-1.27-3.12-1.97-4.98-1.97-1.24,0-2.46.32-3.53.92l-.46.26-.46-.27c-1.82-1.06-4.14-1.21-6.09-.38l-.3.13-.32-.09c-3.98-1.17-8.15-.5-11.52,1.65l-1.78,1.14.37-2.08c.07-.4.11-.81.11-1.22,0-3.86-3.15-6.99-7.03-6.99-2.7,0-5.21,1.56-6.38,3.98l-.75,1.54-.88-1.47c-1.32-2.19-3.65-3.5-6.23-3.5-3.87,0-7.07,3.01-7.29,6.86l-.08,1.36-1.24-.57c-1.82-.83-3.89-1.28-5.98-1.28s-3.81.36-5.52,1.09c-1.57.71-2.99,1.7-4.31,3.03l-.13.14c-1.15,1.27-2.1,2.74-2.79,4.35-.74,1.76-1.11,3.61-1.11,5.49v.32c0,.5.03,1,.08,1.48l.07.68-.63.27c-1.48.63-2.8,1.5-3.93,2.58l-.18.17c-2.36,2.44-3.68,5.67-3.68,9.05,0,1.51.27,3,.8,4.43l.16.43-.34.54c-1.38,2.25-2.11,4.87-2.11,7.58,0,1.88.35,3.67,1.06,5.47.7,1.79,1.72,3.37,3.06,4.7l.18.19c1.44,1.3,2.92,2.26,4.42,2.88,3.34,1.48,7.41,1.56,10.9.17l.41-.16Z"/>
      <g>
        <g>
          <path class="cls-1" d="M152.92,73.6c1.36.95,2.3,1.65,2.84,2.1.74-.2,1.31-.36,1.7-.46.39-.1.73-.2,1.02-.28.29-.08.61-.17.96-.28.35-.1.87-.24,1.57-.4.08,0,.21.09.37.28.16.18.37.38.62.59-.66.29-1.14.54-1.45.74-.31.21-.59.39-.83.56s-.52.34-.83.52c-.31.18-.77.4-1.39.65.25.74.37,1.44.37,2.1,0,.82-.3,1.68-.9,2.56-.6.89-1.31,1.69-2.13,2.41-.82.72-1.67,1.31-2.53,1.76-.86.45-1.58.68-2.16.68-.82,0-1.51-.33-2.07-.99-.56-.66-.83-1.34-.83-2.04,0-.62.14-1.22.43-1.82.29-.6.67-1.15,1.14-1.67.47-.51,1.01-1.01,1.6-1.48s1.2-.9,1.82-1.27c-.99-.82-1.73-1.5-2.22-2.04-.49-.53-.74-1.15-.74-1.85,0-.78.22-1.55.65-2.31.43-.76,1.02-1.43,1.76-2.01.74-.57,1.6-1.05,2.59-1.42.99-.37,2.06-.56,3.21-.56.57,0,1.08.2,1.51.59.43.39.65.77.65,1.14,0,.25-.14.45-.43.62-.29.16-.67.33-1.14.49-.47.17-1.01.34-1.6.52s-1.2.44-1.82.77c-.66.33-1.09.66-1.3.99s-.35.6-.43.8ZM150.02,84.21c1.11-.45,2.01-1.03,2.68-1.73s1.02-1.38,1.02-2.04c0-.29-.06-.56-.19-.8-.7.33-1.28.66-1.73.99-.45.33-.81.67-1.08,1.02-.27.35-.45.73-.56,1.14-.1.41-.15.88-.15,1.42Z"/>
          <path class="cls-1" d="M155.59,76s15.48-9.22,35.38-5.71l.92.98s-1.8.28-1.94,1.02c0,0-15.62-4.99-32.76,5.73l-1.72-.11.13-1.91Z"/>
        </g>
        <path class="cls-1" d="M32.95,96.57c-.83-.04-1.46-.19-1.88-.44-.42-.25-.63-.69-.63-1.31,0-.29.06-.69.19-1.19,2.46-8.93,6.46-17.24,12.01-24.96.67-1,1.38-1.5,2.13-1.5.5,0,1.17.23,2,.69-.42.79-.84,1.58-1.28,2.38-.44.79-.89,1.65-1.34,2.56.75-.38,1.44-.7,2.06-.97.63-.27,1.25-.41,1.88-.41.88,0,1.62.37,2.22,1.09.6.73.91,1.49.91,2.28,0,1.04-.27,2.08-.81,3.1-.54,1.02-1.21,1.93-2,2.72-.79.79-1.65,1.43-2.56,1.91-.92.48-1.75.72-2.5.72-1,0-1.7-.35-2.1-1.06-.4-.71-.78-1.71-1.16-3-.08-.04-.16-.06-.22-.06s-.14-.02-.22-.06c-1.13,2.92-2.24,5.82-3.35,8.7-1.1,2.88-2.22,5.82-3.35,8.82ZM48.03,74.23c-1.79.33-3.19.91-4.19,1.72-1,.81-1.5,1.7-1.5,2.66,0,.04,0,.15.03.31.02.17.05.34.09.53.04.19.1.35.19.5.08.15.17.22.25.22.67,0,1.31-.19,1.94-.56s1.18-.85,1.66-1.44c.48-.58.85-1.23,1.13-1.94.27-.71.41-1.38.41-2Z"/>
        <path class="cls-1" d="M59.67,78.3c-.5.5-1.01,1.03-1.53,1.6-.52.56-1.06,1.08-1.63,1.56-.56.48-1.15.88-1.75,1.19-.61.31-1.24.47-1.91.47-.71,0-1.18-.22-1.41-.66-.23-.44-.34-.93-.34-1.47,0-1.25.18-2.44.53-3.57.35-1.13.84-2.17,1.47-3.13.63-.96,1.35-1.85,2.16-2.66s1.66-1.57,2.53-2.28c.67-.5,1.4-.79,2.19-.88,1.08,0,2.17.71,3.25,2.13.71-.83,1.26-1.45,1.66-1.85.4-.4.89-.38,1.47.03.25.21.38.49.38.84v.91c0,.21-.02.36-.06.44-.42,1.08-.88,2.15-1.38,3.19-.5,1.04-.96,2.11-1.38,3.19-.5,1.34-.92,2.7-1.25,4.1-.33,1.4-.92,2.7-1.75,3.91-.88-.25-1.41-.65-1.6-1.19-.19-.54-.28-1.1-.28-1.69,0-.17.02-.49.06-.97.04-.48.1-.96.19-1.44.08-.48.18-.91.28-1.28.1-.38.22-.56.34-.56-.04-.04-.06-.07-.06-.09,0-.02-.02-.05-.06-.09-.04.04-.06.08-.06.13s-.02.08-.06.12ZM54.23,79.49c.79-.17,1.56-.52,2.31-1.06.75-.54,1.43-1.16,2.03-1.85.6-.69,1.09-1.41,1.47-2.16.38-.75.56-1.44.56-2.06,0-.46-.08-.83-.25-1.13-1.5.96-2.7,2.14-3.6,3.54-.9,1.4-1.74,2.97-2.53,4.72ZM59.67,78.3s.06-.08.06-.12.02-.08.06-.13c.04.04.06.07.06.09,0,.02.02.05.06.09h-.25v.06Z"/>
        <path class="cls-1" d="M84.5,76.36c-.5.33-1.02.71-1.56,1.13-.54.42-1.11.79-1.69,1.13-.58.33-1.15.62-1.69.84-.54.23-1.06.34-1.56.34-1.54,0-2.32-1.06-2.32-3.19,0-.29.03-.57.09-.84.06-.27.09-.57.09-.91,0-.46-.23-.69-.69-.69-.21,0-.54.12-1,.34-.46.23-.95.54-1.47.94-.52.4-1.04.86-1.56,1.38s-.93,1.1-1.22,1.72c-.25.5-.55,1.13-.91,1.88-.36.75-.72,1.49-1.1,2.22-.38.73-.75,1.34-1.13,1.85-.38.5-.69.75-.94.75-.21,0-.4-.09-.56-.28-.17-.19-.32-.42-.47-.69-.15-.27-.26-.54-.34-.81-.08-.27-.12-.47-.12-.59.04-.17.08-.35.12-.56.04-.21.06-.42.06-.63,0,.17-.01.3-.03.41-.02.1-.03.2-.03.28v.25c.17-.92.38-1.8.63-2.66.25-.85.64-1.9,1.16-3.13.52-1.23,1.22-2.64,2.1-4.22.5-.92,1.04-1.79,1.63-2.63.58-.83,1.15-1.25,1.69-1.25.17,0,.51.15,1.03.44.52.29.78.69.78,1.19,0,.17-.04.3-.12.41-.08.1-.13.22-.13.34,0,.21.06.39.19.53.12.15.29.22.5.22.29,0,.6-.11.94-.34.33-.23.69-.47,1.06-.72s.76-.49,1.16-.72c.4-.23.8-.34,1.22-.34.5,0,.83.18,1,.53.17.36.25.8.25,1.35,0,.75-.2,1.52-.59,2.31-.4.79-.59,1.52-.59,2.19,0,.33.11.55.34.66.23.1.47.16.72.16.38,0,.89-.16,1.53-.47.65-.31,1.68-.86,3.1-1.66.17-.08.29-.13.38-.13.21,0,.38.08.5.25.12.17.19.36.19.56,0,.29-.21.58-.63.88Z"/>
        <path class="cls-1" d="M89.82,75.48c-.21-.29-.28-.57-.22-.84.06-.27.19-.54.38-.81.19-.27.4-.53.63-.78.23-.25.38-.48.47-.69-.75.42-1.51.9-2.28,1.44-.77.54-1.48,1.15-2.13,1.81-.65.67-1.17,1.39-1.56,2.16-.4.77-.59,1.6-.59,2.47,0,.54.15.9.44,1.06.29.17.73.25,1.31.25.5,0,1.1-.16,1.78-.47s1.41-.69,2.16-1.13c.75-.44,1.48-.9,2.19-1.38.71-.48,1.33-.89,1.88-1.22.38-.25.56-.38.56-.41s-.04,0-.13.03c-.08.04-.12.04-.12,0s.21-.21.63-.5c.21.08.41.19.59.31.19.13.38.23.59.31l-.13.44c-1.13,1.08-2.14,2.05-3.03,2.91-.9.86-1.8,1.59-2.72,2.19-.92.6-1.93,1.07-3.03,1.41-1.11.33-2.43.5-3.97.5-1.04,0-1.8-.33-2.28-1s-.72-1.56-.72-2.69.22-2.31.66-3.44c.44-1.13,1.02-2.19,1.75-3.19.73-1,1.57-1.92,2.53-2.75.96-.83,1.94-1.54,2.94-2.13.5-.33,1.08-.5,1.75-.5.71,0,1.39.3,2.03.91.65.6.97,1.43.97,2.47,0,.5-.12,1.03-.38,1.6-.25.56-.54,1.03-.88,1.41-.33.38-.69.62-1.06.72-.38.1-.71-.05-1-.47Z"/>
        <path class="cls-1" d="M110.46,77.48c-1,.88-1.86,1.61-2.56,2.19-.71.58-1.4,1.09-2.06,1.5-.67.42-1.41.8-2.22,1.16-.81.35-1.85.78-3.1,1.28-.71.25-1.34.38-1.88.38-1.13,0-2.14-.45-3.03-1.34-.9-.9-1.35-1.91-1.35-3.03,0-.75.3-1.75.91-3,.6-1.25,1.4-2.47,2.38-3.66.98-1.19,2.08-2.21,3.32-3.07,1.23-.85,2.47-1.28,3.72-1.28.75,0,1.37.29,1.85.88.48.58.72,1.29.72,2.13,0,1-.3,1.9-.91,2.69-.61.79-1.37,1.5-2.28,2.13-.92.63-1.89,1.18-2.91,1.66-1.02.48-1.93.93-2.72,1.35-.21.21-.35.45-.44.72-.08.27-.12.52-.12.75s.06.42.19.56c.13.15.31.2.56.16,1.38-.08,2.94-.53,4.69-1.35,1.75-.81,3.38-1.87,4.88-3.16.5-.42.9-.63,1.19-.63.38,0,.77.33,1.19,1ZM104.71,71.79c.04-.33-.01-.52-.16-.56-.15-.04-.32-.02-.53.06-.84.88-1.64,1.76-2.41,2.66-.77.9-1.58,1.8-2.41,2.72-.12.38.02.5.44.38.5-.38,1.01-.73,1.53-1.06.52-.33,1.02-.7,1.5-1.1.48-.4.91-.83,1.28-1.31.38-.48.63-1.07.75-1.78Z"/>
        <path class="cls-1" d="M126.1,76.36c-.5.33-1.02.71-1.56,1.13-.54.42-1.11.79-1.69,1.13-.58.33-1.15.62-1.69.84-.54.23-1.06.34-1.56.34-1.54,0-2.32-1.06-2.32-3.19,0-.29.03-.57.09-.84.06-.27.09-.57.09-.91,0-.46-.23-.69-.69-.69-.21,0-.54.12-1,.34-.46.23-.95.54-1.47.94-.52.4-1.04.86-1.56,1.38s-.93,1.1-1.22,1.72c-.25.5-.55,1.13-.91,1.88-.36.75-.72,1.49-1.1,2.22-.38.73-.75,1.34-1.13,1.85-.38.5-.69.75-.94.75-.21,0-.4-.09-.56-.28-.17-.19-.32-.42-.47-.69-.15-.27-.26-.54-.34-.81-.08-.27-.12-.47-.12-.59.04-.17.08-.35.12-.56.04-.21.06-.42.06-.63,0,.17-.01.3-.03.41-.02.1-.03.2-.03.28v.25c.17-.92.38-1.8.63-2.66.25-.85.64-1.9,1.16-3.13.52-1.23,1.22-2.64,2.1-4.22.5-.92,1.04-1.79,1.63-2.63.58-.83,1.15-1.25,1.69-1.25.17,0,.51.15,1.03.44.52.29.78.69.78,1.19,0,.17-.04.3-.12.41-.08.1-.13.22-.13.34,0,.21.06.39.19.53.12.15.29.22.5.22.29,0,.6-.11.94-.34.33-.23.69-.47,1.06-.72s.76-.49,1.16-.72c.4-.23.8-.34,1.22-.34.5,0,.83.18,1,.53.17.36.25.8.25,1.35,0,.75-.2,1.52-.59,2.31-.4.79-.59,1.52-.59,2.19,0,.33.11.55.34.66.23.1.47.16.72.16.38,0,.89-.16,1.53-.47.65-.31,1.68-.86,3.1-1.66.17-.08.29-.13.38-.13.21,0,.38.08.5.25.12.17.19.36.19.56,0,.29-.21.58-.63.88Z"/>
        <path class="cls-1" d="M127.85,80.8c.71-.29,1.34-.68,1.91-1.16.56-.48,1.12-.99,1.66-1.53.54-.54,1.07-1.08,1.6-1.63.52-.54,1.1-1.04,1.72-1.5.17.08.32.19.47.31.15.13.34.29.59.5-1.25,1.63-2.6,3.13-4.04,4.5-1.44,1.38-3.1,2.52-4.97,3.44-.25.13-.46.19-.63.19-.63,0-1.15-.33-1.56-1-.42-.67-.63-1.42-.63-2.25,0-1.92.42-3.73,1.25-5.44.83-1.71,1.79-3.34,2.88-4.88.83-.54,1.39-.64,1.66-.28.27.35.49.89.66,1.6-.58,1.5-1.13,2.96-1.63,4.38-.5,1.42-1,2.84-1.5,4.25-.29.46-.1.63.56.5ZM131.17,68.6c-.88-.42-1.31-.98-1.31-1.69,0-.04.04-.25.12-.63.08-.38.22-.78.41-1.22.19-.44.42-.84.69-1.22.27-.38.61-.56,1.03-.56.46,0,.82.19,1.1.56.27.38.41.79.41,1.25,0,.58-.22,1.2-.66,1.85-.44.65-1.03,1.2-1.78,1.66Z"/>
        <path class="cls-1" d="M141.62,78.3c-.5.5-1.01,1.03-1.53,1.6-.52.56-1.06,1.08-1.63,1.56-.56.48-1.15.88-1.75,1.19-.61.31-1.24.47-1.91.47-.71,0-1.18-.22-1.41-.66-.23-.44-.34-.93-.34-1.47,0-1.25.18-2.44.53-3.57.35-1.13.84-2.17,1.47-3.13.63-.96,1.35-1.85,2.16-2.66s1.66-1.57,2.53-2.28c.67-.5,1.4-.79,2.19-.88,1.08,0,2.17.71,3.25,2.13.71-.83,1.26-1.45,1.66-1.85.4-.4.89-.38,1.47.03.25.21.38.49.38.84v.91c0,.21-.02.36-.06.44-.42,1.08-.88,2.15-1.38,3.19-.5,1.04-.96,2.11-1.38,3.19-.5,1.34-.92,2.7-1.25,4.1-.33,1.4-.92,2.7-1.75,3.91-.88-.25-1.41-.65-1.6-1.19-.19-.54-.28-1.1-.28-1.69,0-.17.02-.49.06-.97.04-.48.1-.96.19-1.44.08-.48.18-.91.28-1.28.1-.38.22-.56.34-.56-.04-.04-.06-.07-.06-.09,0-.02-.02-.05-.06-.09-.04.04-.06.08-.06.13s-.02.08-.06.12ZM136.17,79.49c.79-.17,1.56-.52,2.31-1.06.75-.54,1.43-1.16,2.03-1.85.6-.69,1.09-1.41,1.47-2.16.38-.75.56-1.44.56-2.06,0-.46-.08-.83-.25-1.13-1.5.96-2.7,2.14-3.6,3.54-.9,1.4-1.74,2.97-2.53,4.72ZM141.62,78.3s.06-.08.06-.12.02-.08.06-.13c.04.04.06.07.06.09,0,.02.02.05.06.09h-.25v.06Z"/>
      </g>
    </g>
  </g>
</svg>