<?xml version="1.0" encoding="UTF-8"?>
<svg id="Camada_2" data-name="Camada 2" xmlns="http://www.w3.org/2000/svg" viewBox="0 0 27.49 30.74">
  <defs>
    <style>
      .cls-1 {
        fill: #a6e8ed;
        stroke-width: 0px;
      }
    </style>
  </defs>
  <g id="Camada_1-2" data-name="Camada 1">
    <path class="cls-1" d="M9.96,30.74c-2.24,0-4.35-.71-6.1-2.07-.33-.25-.64-.53-.94-.82C.87,25.84-.16,23.14.02,20.27c.13-2.17,1.01-4.26,2.46-5.89,1.93-2.16,4.58-3.35,7.48-3.35.5,0,1,.04,1.5.11l.77.11v6.82l-1.18-.39c-.34-.11-.7-.17-1.07-.17-.92,0-1.77.36-2.42,1.01-.64.65-.98,1.51-.97,2.42.02,1.17.64,2.24,1.65,2.84.47.28,1,.44,1.54.47.43.02.85-.03,1.26-.17,1.39-.46,2.32-1.75,2.32-3.2v-7.07s0-13.81,0-13.81h6.52v.89c.01.4.05.81.13,1.2.31,1.54,1.17,2.91,2.43,3.86,1.12.84,2.46,1.29,3.86,1.29t.33.02l.84.06v6.43h-.3s-.6,0-.6,0h-.31c-1.74,0-3.36-.33-4.97-1.01-.48-.2-.95-.43-1.4-.69l.02,8.88c-.01,2.63-1.05,5.09-2.92,6.94-1.52,1.5-3.44,2.46-5.55,2.77-.49.07-.99.11-1.49.11h0ZM9.96,12.83c-2.38,0-4.56.97-6.14,2.74-1.19,1.33-1.9,3.03-2.01,4.8-.14,2.34.7,4.55,2.37,6.2.24.24.5.47.77.67,1.44,1.11,3.17,1.69,5.01,1.69.41,0,.83-.03,1.23-.09,1.73-.26,3.3-1.04,4.54-2.27,1.53-1.51,2.38-3.52,2.39-5.66l-.03-12.39,1.45,1.12c.75.58,1.58,1.06,2.45,1.43,1.2.51,2.41.79,3.68.85v-2.91c-1.57-.12-3.05-.68-4.32-1.63-1.62-1.22-2.72-2.98-3.11-4.95-.04-.21-.08-.43-.1-.64h-2.98v19.09c0,2.24-1.44,4.21-3.56,4.91-.62.2-1.27.29-1.92.25-.83-.05-1.65-.3-2.37-.73-1.56-.93-2.5-2.56-2.53-4.36-.02-1.4.51-2.71,1.49-3.71.98-1,2.3-1.55,3.7-1.55.15,0,.3,0,.45.02v-2.89c-.15,0-.31-.01-.46-.01h0Z"/>
  </g>
</svg>