<?xml version="1.0" encoding="UTF-8"?>
<svg id="Camada_2" data-name="Camada 2" xmlns="http://www.w3.org/2000/svg" viewBox="0 0 30.84 30.84">
  <defs>
    <style>
      .cls-1 {
        fill: #a6e8ed;
        stroke-width: 0px;
      }
    </style>
  </defs>
  <g id="Camada_1-2" data-name="Camada 1">
    <g>
      <path class="cls-1" d="M15.02,0C7.26.27.82,6.49.31,14.24c-.22,3.28.6,6.36,2.16,8.94L.07,29.45c-.31.83.49,1.63,1.32,1.32l6.27-2.4c2.58,1.56,5.66,2.38,8.94,2.16,7.75-.52,13.97-6.95,14.23-14.71C31.13,6.95,23.89-.29,15.02,0ZM16.43,27.99c-2.64.17-5.21-.45-7.45-1.8-.4-.24-.86-.37-1.32-.37-.3,0-.61.06-.91.17l-2.01.77c-.42.16-.82-.25-.66-.66l.77-2.01c.29-.75.19-1.58-.23-2.27-1.33-2.23-1.94-4.79-1.77-7.41.43-6.43,5.81-11.64,12.26-11.86,3.58-.12,6.93,1.2,9.45,3.73,2.53,2.52,3.85,5.87,3.73,9.45-.22,6.45-5.43,11.83-11.86,12.26Z"/>
      <path class="cls-1" d="M18.42,18.9l-.18.18c-.44.44-1.1.58-1.66.33-1.11-.49-2.15-1.19-3.06-2.1s-1.61-1.95-2.1-3.06c-.25-.56-.1-1.23.33-1.66l.18-.18c.42-.42.56-1.05.35-1.61-.29-.76-.5-1.55-.64-2.35-.14-.8-1.14-1.1-1.72-.52l-1.16,1.16c-.51.51-.8,1.22-.74,1.94.21,2.94,1.44,5.83,3.69,8.08s5.13,3.48,8.08,3.69c.72.05,1.43-.23,1.94-.74l1.16-1.16c.58-.58.28-1.58-.52-1.72-.8-.14-1.58-.35-2.35-.64-.56-.21-1.19-.07-1.61.35h0Z"/>
    </g>
  </g>
</svg>